<svg width="23" height="22" viewBox="0 0 23 22" fill="none" xmlns="http://www.w3.org/2000/svg">
<path fill-rule="evenodd" clip-rule="evenodd" d="M0.0449219 1.34375C0.0449219 0.912278 0.394699 0.5625 0.826172 0.5625H2.80668C3.58683 0.5625 4.2805 1.05895 4.53215 1.7974L5.01999 3.22891H18.0133C20.7459 3.22891 22.9612 5.44417 22.9612 8.17683V12.4918C22.9612 15.2245 20.7459 17.4398 18.0133 17.4398H10.2175C7.82226 17.4398 5.77095 15.724 5.34753 13.3665L3.70234 4.20633L3.05317 2.30141C3.01722 2.19592 2.91813 2.125 2.80668 2.125H0.826172C0.394699 2.125 0.0449219 1.77522 0.0449219 1.34375ZM5.39492 4.79141L6.88542 13.0903C7.17513 14.7034 8.57866 15.8773 10.2175 15.8773H18.0133C19.883 15.8773 21.3987 14.3616 21.3987 12.4918V8.17683C21.3987 6.30711 19.883 4.79141 18.0133 4.79141H5.39492Z" fill="white"/>
<path fill-rule="evenodd" clip-rule="evenodd" d="M8.89648 20.3542C8.89648 19.4912 9.59604 18.7917 10.459 18.7917H10.4694C11.3323 18.7917 12.0319 19.4912 12.0319 20.3542C12.0319 21.2171 11.3323 21.9167 10.4694 21.9167H10.459C9.59604 21.9167 8.89648 21.2171 8.89648 20.3542Z" fill="white"/>
<path fill-rule="evenodd" clip-rule="evenodd" d="M17.2305 20.3542C17.2305 19.4912 17.93 18.7917 18.793 18.7917H18.8034C19.6663 18.7917 20.3659 19.4912 20.3659 20.3542C20.3659 21.2171 19.6663 21.9167 18.8034 21.9167H18.793C17.93 21.9167 17.2305 21.2171 17.2305 20.3542Z" fill="white"/>
</svg>
