<svg width="20" height="19" viewBox="0 0 20 19" fill="none" xmlns="http://www.w3.org/2000/svg">
<path d="M4 6V6C4 5.07069 4 4.60604 4.07686 4.21964C4.39248 2.63288 5.63288 1.39249 7.21964 1.07686C7.60603 1 8.07069 1 8.99999 1L11 1C11.9293 1 12.394 1 12.7804 1.07686C14.3671 1.39249 15.6075 2.63288 15.9231 4.21964C16 4.60604 16 5.07069 16 6V6" stroke="#222222" stroke-width="1.5" stroke-linecap="round"/>
<path d="M2.06563 10.4401C1.5746 8.39415 1.32908 7.37116 1.86959 6.68558C2.41009 6 3.46214 6 5.56623 6H14.4338C16.5379 6 17.5899 6 18.1304 6.68558C18.6709 7.37116 18.4254 8.39415 17.9344 10.4401L17.2239 13.4002C16.6941 15.6079 16.4292 16.7118 15.6122 17.3559C14.7952 18 13.66 18 11.3896 18H8.61038C6.34001 18 5.20482 18 4.38782 17.3559C3.57082 16.7118 3.3059 15.6079 2.77606 13.4002L2.06563 10.4401Z" stroke="#222222" stroke-width="1.5"/>
<path d="M15 11V9" stroke="#222222" stroke-width="1.5" stroke-linecap="round"/>
<path d="M5 11V9" stroke="#222222" stroke-width="1.5" stroke-linecap="round"/>
</svg>
