<svg width="24" height="22" viewBox="0 0 24 22" fill="none" xmlns="http://www.w3.org/2000/svg">
<path d="M8.5 7.90891C8.5 8.32313 8.83579 8.65891 9.25 8.65891C9.66421 8.65891 10 8.32313 10 7.90891H8.5ZM5.125 14.8178L5.65663 14.2888L5.125 14.8178ZM18.875 14.8178L18.3434 14.2888L18.875 14.8178ZM13.375 20.345L13.9066 20.874L13.375 20.345ZM10.625 20.345L10.0934 20.874L10.625 20.345ZM10 7.90891C10 4.50396 12.7457 1.75 16.125 1.75V0.25C11.9104 0.25 8.5 3.6825 8.5 7.90891H10ZM16.125 1.75C19.5043 1.75 22.25 4.50396 22.25 7.90891H23.75C23.75 3.6825 20.3396 0.25 16.125 0.25V1.75ZM7.875 0.25C3.66035 0.25 0.25 3.6825 0.25 7.90891H1.75C1.75 4.50396 4.49573 1.75 7.875 1.75V0.25ZM12.4519 1.78269C11.1774 0.820685 9.59164 0.25 7.875 0.25V1.75C9.2538 1.75 10.5245 2.20722 11.5482 2.9799L12.4519 1.78269ZM0.25 7.90891C0.25 9.4906 0.843715 10.8464 1.67144 12.0479C2.49025 13.2365 3.57272 14.3212 4.59337 15.3469L5.65663 14.2888C4.61478 13.2418 3.63475 12.2538 2.90669 11.197C2.18754 10.1531 1.75 9.09079 1.75 7.90891H0.25ZM22.25 7.90891C22.25 9.09079 21.8125 10.1531 21.0933 11.197C20.3652 12.2538 19.3852 13.2418 18.3434 14.2888L19.4066 15.3469C20.4273 14.3212 21.5098 13.2365 22.3286 12.0479C23.1563 10.8464 23.75 9.4906 23.75 7.90891H22.25ZM18.3434 14.2888L12.8434 19.8159L13.9066 20.874L19.4066 15.3469L18.3434 14.2888ZM4.59337 15.3469L10.0934 20.874L11.1566 19.8159L5.65663 14.2888L4.59337 15.3469ZM12.8434 19.8159C12.5107 20.1503 12.2216 20.25 12 20.25C11.7784 20.25 11.4893 20.1503 11.1566 19.8159L10.0934 20.874C10.6298 21.413 11.2811 21.75 12 21.75C12.7189 21.75 13.3702 21.413 13.9066 20.874L12.8434 19.8159Z" fill="white"/>
</svg>
