<svg width="169" height="30" viewBox="0 0 169 30" fill="none" xmlns="http://www.w3.org/2000/svg">
<path d="M73.625 28.7308L69 17.0769L62.375 0.115383H62L55.5 16.6154C54 15.4615 52 14.7692 49.375 14.4231L48.75 14.3077L49.375 14.1923C53.625 13.5 56.625 10.9615 56.625 7.96154C56.625 3.80769 52.375 0.923075 46.375 0.923075H33.125V1.38461H37.25V22.6154L28.375 0.115383H28L16.75 28.6154C16.625 28.6154 16.5 28.6154 16.25 28.6154C16 28.6154 15.75 28.6154 15.625 28.6154H6.75L24.125 0.923075H2.75V9.6923H3.125C3.125 5.53846 5.75 1.38461 11.625 1.38461H18.25L0.875 29.0769H24.625V20.7692H24.25C24.25 24.3461 22 27.8077 17.25 28.6154L20.875 19.6154H31.125L34.75 28.8461H31.375V29.1923H45V28.8461H41.875V14.6538H46.125C50.5 14.6538 53 16.3846 53 19.5V22.0385C53 22.2692 53 22.5 53 22.8461L50.75 28.7308H48.125V29.0769H53.75V28.7308H51.125L53 23.8846V24.2308V24.5769C53.375 26.5385 54.125 27.9231 55.375 28.8461L55.5 28.9615C56.5 29.5385 57.75 29.8846 59.125 29.8846C61 29.8846 62.125 29.4231 63.125 28.5L62.875 28.2692C62 29.0769 61.125 29.4231 60.25 29.4231C58.5 29.4231 57.75 27.5769 57.75 25.7308V22.2692C57.75 21.3461 57.625 20.4231 57.25 19.7308H64.875L68.5 28.9615H65V29.3077H76.875V28.9615L73.625 28.7308ZM21 19.1538L26 6.46154L31 19.1538H21ZM41.875 14.3077V1.5H45.125C49.5 1.5 51.75 3.69231 51.75 8.19231C51.75 13.0385 50.375 14.3077 46.125 14.3077H41.875ZM57.375 19.1538C57 18.4615 56.5 17.7692 56 17.1923L55.875 17.0769L60 6.46154L65 19.1538H57.375Z" fill="black"/>
<path d="M168.5 20.8846C168.5 25.1538 165.75 28.7308 158.875 28.7308H153.75V14.7692H155.625C159.125 14.7692 161.125 16.5 161.125 19.1538H161.5V9.80769H161.125C161.125 12.5769 159.125 14.3077 155.625 14.3077H153.75V1.38461H159C164.375 1.38461 166.5 4.5 166.5 8.19231H166.875V1.03846H139.75L131.75 22.7308L123 1.03846H114V1.5H117.875V12C116.5 5.42308 111 0.461536 104.25 0.461536C97.5 0.461536 92 5.30769 90.625 11.8846V1.5H94.5V1.03846H82V1.5H85.875V14.3077H73.5V1.38461H77.375V1.03846H64.875V1.5H68.75V17.0769L73.375 28.7308V14.6538H85.75V28.7308H81.875V29.0769H94.375V28.7308H90.5V18.2308C91.875 24.8077 97.375 29.6538 104.125 29.6538C110.875 29.6538 116.5 24.6923 117.75 18.1154V28.7308H113.25V29.0769H122.625V28.7308H118.125V1.5L129.375 29.7692H129.5L139.75 2.30769V28.6154H135.75V28.9615H168.875V20.7692H168.5V20.8846ZM109.625 27.6923C108.125 28.8462 106.375 29.3077 104.125 29.3077C101.875 29.3077 100.125 28.8462 98.625 27.6923C96.25 25.8462 95 22.0385 95 15.1154C95 8.19231 96.25 4.38461 98.625 2.53846C100.125 1.38461 101.875 0.923075 104.125 0.923075C106.375 0.923075 108.125 1.38461 109.625 2.53846C111.875 4.26923 113.25 8.07692 113.25 15C113.25 22.0385 111.875 25.8462 109.625 27.6923ZM149.25 28.7308H144.5V1.5H149.25V28.7308Z" fill="black"/>
</svg>
