<svg width="35" height="35" viewBox="0 0 35 35" fill="none" xmlns="http://www.w3.org/2000/svg">
<path d="M25.5443 9.88105C26.3027 11.0245 26.3027 12.6163 26.3027 15.7999C26.3027 18.9835 26.3027 20.5753 25.5443 21.7188C25.216 22.2138 24.7942 22.6388 24.3028 22.9696C23.3113 23.637 21.9801 23.7214 19.5527 23.7321L19.5527 23.7336L18.309 26.2397C17.8944 27.0751 16.7111 27.0751 16.2965 26.2397L15.0527 23.7336L15.0527 23.7321C12.6253 23.7214 11.2942 23.637 10.3027 22.9696C9.81131 22.6388 9.38943 22.2138 9.06112 21.7188C8.30273 20.5753 8.30273 18.9835 8.30273 15.7999C8.30273 12.6163 8.30273 11.0245 9.06112 9.88105C9.38943 9.38603 9.81131 8.96101 10.3027 8.63025C11.4377 7.86621 13.0177 7.86621 16.1777 7.86621L18.4277 7.86621C21.5878 7.86621 23.1678 7.86621 24.3028 8.63025C24.7942 8.96101 25.216 9.38603 25.5443 9.88105Z" stroke="#222222" stroke-width="1.5" stroke-linecap="round" stroke-linejoin="round"/>
<path d="M13.3027 12.8662L22.3027 12.8662" stroke="#222222" stroke-width="1.5" stroke-linecap="round" stroke-linejoin="round"/>
<path d="M13.3027 17.8662L17.3027 17.8662" stroke="#222222" stroke-width="1.5" stroke-linecap="round" stroke-linejoin="round"/>
</svg>
