<svg width="163" height="37" viewBox="0 0 163 37" fill="none" xmlns="http://www.w3.org/2000/svg">
<path d="M77.7094 7.00556C79.3154 3.00185 80.1184 1 81.4992 1C82.8801 1 83.6831 3.00185 85.289 7.00556L85.3638 7.192C86.2711 9.45389 86.7248 10.5848 87.6493 11.2722C88.5739 11.9597 89.7876 12.0683 92.215 12.2857L92.6538 12.325C96.6265 12.6808 98.6129 12.8587 99.0379 14.1225C99.4629 15.3862 97.9878 16.7283 95.0375 19.4125L94.0528 20.3083C92.5593 21.6671 91.8126 22.3464 91.4645 23.2369C91.3996 23.403 91.3456 23.5731 91.303 23.7463C91.0742 24.6746 91.2928 25.6601 91.7302 27.6313L91.8663 28.2449C92.6701 31.8675 93.0719 33.6788 92.3703 34.4601C92.1081 34.752 91.7673 34.9622 91.3887 35.0655C90.3757 35.3419 88.9373 34.1699 86.0607 31.8259C84.1718 30.2867 83.2274 29.5171 82.1431 29.344C81.7165 29.2759 81.2819 29.2759 80.8554 29.344C79.7711 29.5171 78.8266 30.2867 76.9377 31.8259C74.0611 34.1699 72.6228 35.3419 71.6097 35.0655C71.2312 34.9622 70.8904 34.752 70.6282 34.4601C69.9265 33.6788 70.3284 31.8675 71.1322 28.2449L71.2683 27.6313C71.7056 25.6601 71.9243 24.6746 71.6955 23.7463C71.6528 23.5731 71.5989 23.403 71.5339 23.2369C71.1859 22.3464 70.4391 21.6671 68.9457 20.3083L67.961 19.4125C65.0107 16.7283 63.5355 15.3862 63.9606 14.1225C64.3856 12.8587 66.372 12.6808 70.3447 12.325L70.7835 12.2857C73.2109 12.0683 74.4246 11.9597 75.3491 11.2722C76.2737 10.5848 76.7273 9.45389 77.6346 7.19199L77.7094 7.00556Z" stroke="#222222" stroke-width="1.5"/>
<path d="M117.987 13.229C119.264 10.0594 119.902 8.47461 121 8.47461C122.098 8.47461 122.736 10.0594 124.013 13.229L124.072 13.3766C124.794 15.1673 125.154 16.0626 125.889 16.6068C126.624 17.151 127.589 17.237 129.519 17.4091L129.868 17.4403C133.026 17.7219 134.605 17.8628 134.943 18.8632C135.281 19.8637 134.108 20.9262 131.763 23.0511L130.98 23.7603C129.793 24.836 129.199 25.3739 128.922 26.0788C128.871 26.2103 128.828 26.345 128.794 26.4821C128.612 27.217 128.786 27.9972 129.133 29.5577L129.242 30.0434C129.881 32.9113 130.2 34.3453 129.642 34.9638C129.434 35.1949 129.163 35.3613 128.862 35.4431C128.057 35.6619 126.913 34.7341 124.626 32.8784C123.125 31.6599 122.374 31.0506 121.512 30.9136C121.173 30.8597 120.827 30.8597 120.488 30.9136C119.626 31.0506 118.875 31.6599 117.374 32.8784C115.087 34.7341 113.943 35.6619 113.138 35.4431C112.837 35.3613 112.566 35.1949 112.358 34.9638C111.8 34.3453 112.119 32.9113 112.758 30.0434L112.867 29.5577C113.214 27.9972 113.388 27.217 113.206 26.4821C113.172 26.345 113.129 26.2103 113.078 26.0788C112.801 25.3739 112.207 24.836 111.02 23.7603L110.237 23.0511C107.892 20.9262 106.719 19.8637 107.057 18.8632C107.395 17.8628 108.974 17.7219 112.132 17.4403L112.481 17.4091C114.411 17.237 115.376 17.151 116.111 16.6068C116.846 16.0626 117.206 15.1673 117.928 13.3766L117.987 13.229Z" stroke="#222222" stroke-width="1.5"/>
<path d="M117.987 13.229C119.264 10.0594 119.902 8.47461 121 8.47461C122.098 8.47461 122.736 10.0594 124.013 13.229L124.072 13.3766C124.794 15.1673 125.154 16.0626 125.889 16.6068C126.624 17.151 127.589 17.237 129.519 17.4091L129.868 17.4403C133.026 17.7219 134.605 17.8628 134.943 18.8632C135.281 19.8637 134.108 20.9262 131.763 23.0511L130.98 23.7603C129.793 24.836 129.199 25.3739 128.922 26.0788C128.871 26.2103 128.828 26.345 128.794 26.4821C128.612 27.217 128.786 27.9972 129.133 29.5577L129.242 30.0434C129.881 32.9113 130.2 34.3453 129.642 34.9638C129.434 35.1949 129.163 35.3613 128.862 35.4431C128.057 35.6619 126.913 34.7341 124.626 32.8784C123.125 31.6599 122.374 31.0506 121.512 30.9136C121.173 30.8597 120.827 30.8597 120.488 30.9136C119.626 31.0506 118.875 31.6599 117.374 32.8784C115.087 34.7341 113.943 35.6619 113.138 35.4431C112.837 35.3613 112.566 35.1949 112.358 34.9638C111.8 34.3453 112.119 32.9113 112.758 30.0434L112.867 29.5577C113.214 27.9972 113.388 27.217 113.206 26.4821C113.172 26.345 113.129 26.2103 113.078 26.0788C112.801 25.3739 112.207 24.836 111.02 23.7603L110.237 23.0511C107.892 20.9262 106.719 19.8637 107.057 18.8632C107.395 17.8628 108.974 17.7219 112.132 17.4403L112.481 17.4091C114.411 17.237 115.376 17.151 116.111 16.6068C116.846 16.0626 117.206 15.1673 117.928 13.3766L117.987 13.229Z" stroke="#222222" stroke-width="1.5"/>
<path d="M149.848 19.8203C150.76 17.5898 151.216 16.4746 152 16.4746C152.784 16.4746 153.24 17.5898 154.152 19.8203L154.194 19.9242C154.71 21.1843 154.967 21.8143 155.492 22.1973C156.017 22.5802 156.706 22.6408 158.085 22.7619L158.334 22.7838C160.59 22.982 161.718 23.0811 161.959 23.7851C162.201 24.4892 161.363 25.2368 159.688 26.7322L159.128 27.2312C158.28 27.9882 157.856 28.3667 157.659 28.8627C157.622 28.9553 157.591 29.0501 157.567 29.1465C157.437 29.6637 157.561 30.2127 157.81 31.3109L157.887 31.6527C158.343 33.6708 158.571 34.6799 158.173 35.1151C158.024 35.2778 157.831 35.3949 157.616 35.4524C157.04 35.6064 156.224 34.9535 154.59 33.6477C153.518 32.7902 152.981 32.3614 152.366 32.265C152.123 32.2271 151.877 32.2271 151.634 32.265C151.019 32.3614 150.482 32.7902 149.41 33.6477C147.776 34.9535 146.96 35.6064 146.384 35.4524C146.169 35.3949 145.976 35.2778 145.827 35.1151C145.429 34.6799 145.657 33.6708 146.113 31.6527L146.19 31.3109C146.439 30.2127 146.563 29.6637 146.433 29.1465C146.409 29.0501 146.378 28.9553 146.341 28.8627C146.144 28.3667 145.72 27.9882 144.872 27.2312L144.312 26.7322C142.637 25.2368 141.799 24.4892 142.041 23.7851C142.282 23.0811 143.41 22.982 145.666 22.7838L145.915 22.7619C147.294 22.6408 147.983 22.5802 148.508 22.1973C149.033 21.8143 149.29 21.1843 149.806 19.9242L149.848 19.8203Z" stroke="#222222" stroke-width="1.5"/>
<path d="M38.9872 13.229C40.2639 10.0594 40.9023 8.47461 42 8.47461C43.0977 8.47461 43.7361 10.0594 45.0128 13.229L45.0723 13.3766C45.7935 15.1673 46.1542 16.0626 46.8892 16.6068C47.6242 17.151 48.5891 17.237 50.5188 17.4091L50.8676 17.4403C54.0258 17.7219 55.6049 17.8628 55.9428 18.8632C56.2807 19.8637 55.108 20.9262 52.7626 23.0511L51.9798 23.7603C50.7925 24.836 50.1989 25.3739 49.9222 26.0788C49.8706 26.2103 49.8277 26.345 49.7937 26.4821C49.6119 27.217 49.7857 27.9972 50.1334 29.5577L50.2416 30.0434C50.8806 32.9113 51.2 34.3453 50.6422 34.9638C50.4338 35.1949 50.1629 35.3613 49.8619 35.4431C49.0566 35.6619 47.9131 34.7341 45.6263 32.8784C44.1247 31.6599 43.3738 31.0506 42.5118 30.9136C42.1728 30.8597 41.8272 30.8597 41.4882 30.9136C40.6261 31.0506 39.8753 31.6599 38.3737 32.8784C36.0869 34.7341 34.9434 35.6619 34.1381 35.4431C33.8371 35.3613 33.5662 35.1949 33.3578 34.9638C32.8 34.3453 33.1194 32.9113 33.7584 30.0434L33.8666 29.5577C34.2143 27.9972 34.3881 27.217 34.2063 26.4821C34.1723 26.345 34.1294 26.2103 34.0778 26.0788C33.8011 25.3739 33.2075 24.836 32.0202 23.7603L31.2374 23.0511C28.892 20.9262 27.7193 19.8637 28.0572 18.8632C28.3951 17.8628 29.9742 17.7219 33.1324 17.4403L33.4812 17.4091C35.4109 17.237 36.3758 17.151 37.1108 16.6068C37.8458 16.0626 38.2065 15.1673 38.9277 13.3766L38.9872 13.229Z" stroke="#222222" stroke-width="1.5"/>
<path d="M8.84799 19.8203C9.75993 17.5898 10.2159 16.4746 11 16.4746C11.7841 16.4746 12.2401 17.5898 13.152 19.8203L13.1945 19.9242C13.7097 21.1843 13.9673 21.8143 14.4923 22.1973C15.0173 22.5802 15.7065 22.6408 17.0848 22.7619L17.334 22.7838C19.5899 22.982 20.7178 23.0811 20.9592 23.7851C21.2005 24.4892 20.3629 25.2368 18.6876 26.7322L18.1284 27.2312C17.2804 27.9882 16.8563 28.3667 16.6587 28.8627C16.6218 28.9553 16.5912 29.0501 16.567 29.1465C16.437 29.6637 16.5612 30.2127 16.8096 31.3109L16.8869 31.6527C17.3433 33.6708 17.5715 34.6799 17.173 35.1151C17.0241 35.2778 16.8306 35.3949 16.6157 35.4524C16.0404 35.6064 15.2237 34.9535 13.5902 33.6477C12.5176 32.7902 11.9813 32.3614 11.3656 32.265C11.1234 32.2271 10.8766 32.2271 10.6344 32.265C10.0187 32.3614 9.48238 32.7902 8.40979 33.6477C6.77633 34.9535 5.95961 35.6064 5.38434 35.4524C5.16938 35.3949 4.97587 35.2778 4.82698 35.1151C4.42854 34.6799 4.65674 33.6708 5.11314 31.6527L5.19045 31.3109C5.43879 30.2127 5.56296 29.6637 5.43305 29.1465C5.40881 29.0501 5.37817 28.9553 5.3413 28.8627C5.14366 28.3667 4.71963 27.9882 3.87156 27.2312L3.31243 26.7322C1.63713 25.2368 0.799483 24.4892 1.04083 23.7851C1.28218 23.0811 2.41011 22.982 4.66598 22.7838L4.91516 22.7619C6.29352 22.6408 6.9827 22.5802 7.50771 22.1973C8.03272 21.8143 8.29032 21.1843 8.80553 19.9242L8.84799 19.8203Z" stroke="#222222" stroke-width="1.5"/>
</svg>
